<?xml version="1.0" encoding="utf-8"?>
<!-- Generator: Adobe Illustrator 16.0.0, SVG Export Plug-In . SVG Version: 6.00 Build 0)  -->
<!DOCTYPE svg PUBLIC "-//W3C//DTD SVG 1.1//EN" "http://www.w3.org/Graphics/SVG/1.1/DTD/svg11.dtd">
<svg version="1.1" id="Laag_1" xmlns="http://www.w3.org/2000/svg" xmlns:xlink="http://www.w3.org/1999/xlink" x="0px" y="0px"
	 width="238.167px" height="69.167px" viewBox="6.667 17.833 238.167 69.167" enable-background="new 6.667 17.833 238.167 69.167"
	 xml:space="preserve">
<g>
	<path fill="#1D1D1B" d="M78.34,53.915c-0.421,0-0.767,0.086-1.036,0.258c-0.271,0.171-0.405,0.433-0.405,0.779
		c0,0.348,0.135,0.612,0.405,0.797s0.844,0.382,1.724,0.595c0.879,0.213,1.541,0.512,1.986,0.896
		c0.446,0.384,0.669,0.951,0.669,1.699s-0.282,1.354-0.847,1.822c-0.564,0.465-1.305,0.698-2.22,0.698
		c-1.342,0-2.531-0.462-3.569-1.386l0.907-1.092c0.866,0.752,1.767,1.127,2.698,1.127c0.467,0,0.837-0.1,1.111-0.299
		c0.273-0.201,0.41-0.467,0.41-0.797c0-0.332-0.129-0.59-0.387-0.773c-0.258-0.184-0.701-0.352-1.33-0.504
		c-0.631-0.15-1.109-0.291-1.436-0.416c-0.327-0.127-0.617-0.293-0.871-0.498c-0.507-0.383-0.761-0.973-0.761-1.766
		s0.288-1.404,0.864-1.834c0.577-0.43,1.291-0.644,2.142-0.644c0.548,0,1.092,0.09,1.632,0.271c0.539,0.18,1.006,0.434,1.398,0.76
		L80.652,54.7c-0.254-0.229-0.598-0.417-1.03-0.563C79.188,53.988,78.762,53.915,78.34,53.915z"/>
	<path fill="#1D1D1B" d="M84.922,61.361h-1.447v-8.575h2.256l2.589,5.386l2.589-5.386h2.244v8.575h-1.447v-6.698l-2.993,5.948h-0.81
		l-2.98-5.948L84.922,61.361L84.922,61.361z"/>
	<path fill="#1D1D1B" d="M96.746,59.411l-0.857,1.95h-1.547l3.779-8.574h1.545l3.779,8.574h-1.547l-0.858-1.95H96.746z
		 M100.451,58.074l-1.558-3.533l-1.558,3.533H100.451z"/>
	<path fill="#1D1D1B" d="M111.479,55.57c0,1.416-0.618,2.307-1.853,2.675l2.245,3.116h-1.841l-2.048-2.883h-1.901v2.883h-1.447
		v-8.575h3.189c1.309,0,2.244,0.221,2.809,0.663C111.197,53.891,111.479,54.598,111.479,55.57z M109.553,56.786
		c0.295-0.253,0.442-0.66,0.442-1.222c0-0.56-0.151-0.944-0.454-1.152c-0.303-0.209-0.842-0.313-1.619-0.313h-1.84v3.066h1.803
		C108.703,57.166,109.26,57.039,109.553,56.786z"/>
	<path fill="#1D1D1B" d="M116.682,54.111v7.25h-1.448v-7.25h-2.601v-1.325h6.648v1.325H116.682z"/>
	<path fill="#1D1D1B" d="M120.852,52.786h1.447v8.575h-1.447V52.786z"/>
	<path fill="#1D1D1B" d="M131.107,52.786h1.447v8.575h-1.57l-4.857-6.256v6.256h-1.448v-8.575h1.448l4.98,6.403V52.786z"/>
	<path fill="#1D1D1B" d="M138.173,54.111v7.25h-1.448v-7.25h-2.6v-1.325h6.648v1.325H138.173z"/>
	<path fill="#1D1D1B" d="M148.367,52.786v1.362h-4.576v2.269h4.109v1.288h-4.109V60h4.723v1.361h-6.17v-8.575H148.367z"/>
	<path fill="#1D1D1B" d="M157.211,55.57c0,1.416-0.617,2.307-1.852,2.675l2.244,3.116h-1.84l-2.05-2.883h-1.899v2.883h-1.448v-8.575
		h3.188c1.31,0,2.245,0.221,2.811,0.663C156.93,53.891,157.211,54.598,157.211,55.57z M155.285,56.786
		c0.295-0.253,0.441-0.66,0.441-1.222c0-0.56-0.15-0.944-0.453-1.152c-0.303-0.209-0.844-0.313-1.619-0.313h-1.84v3.066h1.803
		C154.436,57.166,154.991,57.039,155.285,56.786z"/>
	<path fill="#1D1D1B" d="M165.725,52.786h1.447v8.575h-1.57l-4.856-6.256v6.256h-1.447v-8.575h1.447l4.979,6.403V52.786z"/>
	<path fill="#1D1D1B" d="M175.575,52.786v1.362H171v2.269h4.109v1.288H171V60h4.723v1.361h-6.17v-8.575H175.575z"/>
	<path fill="#1D1D1B" d="M180.813,54.111v7.25h-1.446v-7.25h-2.603v-1.325h6.65v1.325H180.813z"/>
	<path fill="#1D1D1B" d="M187.658,58.957l1.914-6.171h1.301l1.913,6.171l2.159-6.171h1.558l-2.993,8.575h-1.435l-1.806-5.877h-0.098
		l-1.803,5.877h-1.436l-2.994-8.575h1.56L187.658,58.957z"/>
	<path fill="#1D1D1B" d="M204.932,60.178c-0.867,0.846-1.938,1.27-3.215,1.27c-1.275,0-2.348-0.422-3.214-1.27
		c-0.866-0.847-1.3-1.902-1.3-3.164c0-1.265,0.434-2.32,1.3-3.166s1.938-1.27,3.214-1.27s2.348,0.423,3.215,1.27
		c0.866,0.846,1.301,1.901,1.301,3.166C206.23,58.275,205.798,59.331,204.932,60.178z M203.87,54.811
		c-0.586-0.604-1.304-0.908-2.153-0.908s-1.568,0.304-2.152,0.908c-0.586,0.605-0.877,1.34-0.877,2.203
		c0,0.862,0.291,1.596,0.877,2.201c0.584,0.605,1.303,0.908,2.152,0.908s1.567-0.303,2.153-0.908
		c0.584-0.605,0.877-1.339,0.877-2.201C204.747,56.15,204.454,55.416,203.87,54.811z"/>
	<path fill="#1D1D1B" d="M214.904,55.57c0,1.416-0.618,2.307-1.854,2.675l2.244,3.116h-1.839l-2.049-2.883h-1.902v2.883h-1.446
		v-8.575h3.189c1.309,0,2.244,0.221,2.809,0.663C214.623,53.891,214.904,54.598,214.904,55.57z M212.979,56.786
		c0.295-0.253,0.441-0.66,0.441-1.222c0-0.56-0.152-0.944-0.454-1.152c-0.302-0.209-0.843-0.313-1.618-0.313h-1.842v3.066h1.805
		C212.127,57.166,212.684,57.039,212.979,56.786z"/>
	<path fill="#1D1D1B" d="M216.988,52.786h1.449v4.185l3.924-4.185h1.841l-3.447,3.754l3.496,4.821h-1.718l-2.846-3.754l-1.25,1.35
		v2.404h-1.449V52.786L216.988,52.786z"/>
	<path fill="#1D1D1B" d="M225.509,61.189c-0.175-0.181-0.264-0.396-0.264-0.65s0.089-0.469,0.264-0.645
		c0.177-0.176,0.39-0.264,0.646-0.264c0.253,0,0.47,0.088,0.648,0.264c0.18,0.176,0.271,0.391,0.271,0.645
		c0,0.253-0.092,0.47-0.271,0.65c-0.18,0.18-0.396,0.27-0.648,0.27C225.898,61.459,225.686,61.37,225.509,61.189z"/>
	<path fill="#1D1D1B" d="M235.488,52.786h1.447v8.575h-1.57l-4.857-6.256v6.256h-1.447v-8.575h1.447l4.98,6.403V52.786z"/>
	<path fill="#1D1D1B" d="M239.314,61.361v-8.575h1.447v7.2h3.913v1.375H239.314z"/>
</g>
<line fill="none" stroke="#878787" stroke-width="1.5" stroke-miterlimit="10" x1="104.863" y1="73.38" x2="214.759" y2="73.38"/>
<path fill="#00A8FF" d="M36.151,18.018c15.585,0,29.277,12.47,29.277,29.277c0,16.807-13.826,31.443-31.581,37.273
	c-11.114,3.658-24.668,2.303-18.434,0.406c6.236-1.897,11.657-7.591,5.965-12.063c-5.693-4.475-14.503-10.98-14.503-26.567
	C6.876,29.538,21.243,18.018,36.151,18.018z"/>
<g>
	<path fill="#FFFFFF" d="M34.802,45.983c0.469,0,1.114,0.008,1.936,0.025c0.821,0.018,1.7,0.084,2.64,0.201
		c0.94,0.118,1.885,0.32,2.839,0.604c0.958,0.286,1.821,0.697,2.595,1.233c0.77,0.537,1.397,1.224,1.887,2.062
		c0.482,0.838,0.727,1.879,0.727,3.119c0,1.944-0.428,3.496-1.283,4.651c-0.856,1.157-1.904,2.038-3.141,2.642
		c-1.241,0.604-2.576,0.988-3.999,1.156c-1.427,0.166-2.691,0.252-3.797,0.252c-0.201,0-0.639-0.01-1.309-0.025
		c-0.671-0.018-1.449-0.11-2.338-0.277c-0.89-0.168-1.83-0.436-2.816-0.805c-0.99-0.369-1.896-0.896-2.716-1.584
		c-0.822-0.687-1.503-1.575-2.037-2.666c-0.536-1.088-0.805-2.422-0.805-3.998h6.136c0,0.303,0.051,0.662,0.15,1.082
		c0.102,0.421,0.336,0.83,0.705,1.232c0.369,0.402,0.92,0.748,1.658,1.031c0.736,0.285,1.743,0.443,3.02,0.479
		c1.574,0.033,2.791-0.033,3.645-0.201s1.482-0.393,1.885-0.678c0.405-0.285,0.646-0.58,0.729-0.881
		c0.085-0.302,0.125-0.586,0.125-0.855c0-0.303-0.049-0.604-0.149-0.904c-0.1-0.302-0.361-0.579-0.777-0.83
		c-0.421-0.252-1.074-0.462-1.962-0.629c-0.89-0.168-2.12-0.268-3.696-0.302c-1.209-0.033-2.416-0.201-3.623-0.503
		c-1.205-0.301-2.297-0.762-3.27-1.383c-0.972-0.619-1.759-1.399-2.363-2.339c-0.602-0.938-0.905-2.043-0.905-3.319
		c0-1.409,0.304-2.641,0.905-3.697c0.604-1.055,1.4-1.918,2.389-2.589c0.989-0.671,2.121-1.174,3.395-1.51
		c1.275-0.334,2.617-0.503,4.025-0.503c0.737,0,1.725,0.084,2.965,0.252c1.241,0.169,2.456,0.553,3.648,1.157
		c1.187,0.604,2.212,1.493,3.067,2.666c0.855,1.174,1.265,2.765,1.23,4.778h-6.136c0-1.072-0.361-1.919-1.079-2.539
		c-0.724-0.62-2.006-0.932-3.847-0.932c-1.377,0-2.484,0.26-3.32,0.779c-0.84,0.521-1.257,1.233-1.257,2.138
		c0,0.872,0.403,1.493,1.205,1.86C32.487,45.801,33.526,45.983,34.802,45.983z"/>
</g>
</svg>
